<mxfile host="app.diagrams.net" modified="2023-11-26T20:56:51.776Z" agent="Mozilla/5.0 (X11; Linux x86_64) AppleWebKit/537.36 (KHTML, like Gecko) Chrome/119.0.0.0 Safari/537.36" etag="kFic04hnoXwWJQo8DPp1" version="22.1.4" type="device">
  <diagram name="1 oldal" id="wp2a5r-fpoawqmzqKDDo">
    <mxGraphModel dx="1050" dy="550" grid="1" gridSize="10" guides="1" tooltips="1" connect="1" arrows="1" fold="1" page="1" pageScale="1" pageWidth="827" pageHeight="1169" math="0" shadow="0">
      <root>
        <mxCell id="0" />
        <mxCell id="1" parent="0" />
        <mxCell id="RIKkRgaRCpIKNUtkJool-8" value="Felhasználó" style="rounded=0;whiteSpace=wrap;html=1;" vertex="1" parent="1">
          <mxGeometry x="60" y="60" width="120" height="60" as="geometry" />
        </mxCell>
        <mxCell id="RIKkRgaRCpIKNUtkJool-9" value="Színész" style="rounded=0;whiteSpace=wrap;html=1;" vertex="1" parent="1">
          <mxGeometry x="190" y="310" width="120" height="60" as="geometry" />
        </mxCell>
        <mxCell id="RIKkRgaRCpIKNUtkJool-10" value="Média" style="rounded=0;whiteSpace=wrap;html=1;" vertex="1" parent="1">
          <mxGeometry x="410" y="60" width="120" height="60" as="geometry" />
        </mxCell>
        <mxCell id="RIKkRgaRCpIKNUtkJool-11" value="Film" style="rounded=0;whiteSpace=wrap;html=1;" vertex="1" parent="1">
          <mxGeometry x="354" y="310" width="120" height="60" as="geometry" />
        </mxCell>
        <mxCell id="RIKkRgaRCpIKNUtkJool-12" value="Sorozat" style="rounded=0;whiteSpace=wrap;html=1;" vertex="1" parent="1">
          <mxGeometry x="570" y="310" width="120" height="60" as="geometry" />
        </mxCell>
        <mxCell id="RIKkRgaRCpIKNUtkJool-13" value="cím" style="ellipse;whiteSpace=wrap;html=1;" vertex="1" parent="1">
          <mxGeometry x="570" y="60" width="120" height="30" as="geometry" />
        </mxCell>
        <mxCell id="RIKkRgaRCpIKNUtkJool-14" value="&lt;u&gt;azonosító&lt;/u&gt;" style="ellipse;whiteSpace=wrap;html=1;" vertex="1" parent="1">
          <mxGeometry x="570" y="100" width="120" height="30" as="geometry" />
        </mxCell>
        <mxCell id="RIKkRgaRCpIKNUtkJool-16" value="műfaj" style="ellipse;whiteSpace=wrap;html=1;" vertex="1" parent="1">
          <mxGeometry x="510" y="150" width="120" height="30" as="geometry" />
        </mxCell>
        <mxCell id="RIKkRgaRCpIKNUtkJool-17" value="" style="endArrow=none;html=1;rounded=0;" edge="1" parent="1" source="RIKkRgaRCpIKNUtkJool-10" target="RIKkRgaRCpIKNUtkJool-16">
          <mxGeometry width="50" height="50" relative="1" as="geometry">
            <mxPoint x="390" y="300" as="sourcePoint" />
            <mxPoint x="440" y="250" as="targetPoint" />
          </mxGeometry>
        </mxCell>
        <mxCell id="RIKkRgaRCpIKNUtkJool-18" value="" style="endArrow=none;html=1;rounded=0;" edge="1" parent="1" source="RIKkRgaRCpIKNUtkJool-10" target="RIKkRgaRCpIKNUtkJool-14">
          <mxGeometry width="50" height="50" relative="1" as="geometry">
            <mxPoint x="540" y="100" as="sourcePoint" />
            <mxPoint x="561" y="161" as="targetPoint" />
          </mxGeometry>
        </mxCell>
        <mxCell id="RIKkRgaRCpIKNUtkJool-19" value="" style="endArrow=none;html=1;rounded=0;" edge="1" parent="1" source="RIKkRgaRCpIKNUtkJool-10" target="RIKkRgaRCpIKNUtkJool-13">
          <mxGeometry width="50" height="50" relative="1" as="geometry">
            <mxPoint x="540" y="109" as="sourcePoint" />
            <mxPoint x="589" y="117" as="targetPoint" />
          </mxGeometry>
        </mxCell>
        <mxCell id="RIKkRgaRCpIKNUtkJool-22" value="" style="edgeStyle=orthogonalEdgeStyle;rounded=0;orthogonalLoop=1;jettySize=auto;html=1;" edge="1" parent="1" source="RIKkRgaRCpIKNUtkJool-84" target="RIKkRgaRCpIKNUtkJool-10">
          <mxGeometry relative="1" as="geometry">
            <mxPoint x="414" y="220" as="sourcePoint" />
            <Array as="points">
              <mxPoint x="414" y="170" />
              <mxPoint x="450" y="170" />
            </Array>
          </mxGeometry>
        </mxCell>
        <mxCell id="RIKkRgaRCpIKNUtkJool-23" value="" style="edgeStyle=orthogonalEdgeStyle;rounded=0;orthogonalLoop=1;jettySize=auto;html=1;endArrow=none;endFill=0;" edge="1" parent="1" source="RIKkRgaRCpIKNUtkJool-11" target="RIKkRgaRCpIKNUtkJool-84">
          <mxGeometry relative="1" as="geometry">
            <mxPoint x="300" y="220" as="sourcePoint" />
            <mxPoint x="414" y="260" as="targetPoint" />
          </mxGeometry>
        </mxCell>
        <mxCell id="RIKkRgaRCpIKNUtkJool-24" value="" style="edgeStyle=orthogonalEdgeStyle;rounded=0;orthogonalLoop=1;jettySize=auto;html=1;" edge="1" parent="1" source="RIKkRgaRCpIKNUtkJool-86" target="RIKkRgaRCpIKNUtkJool-10">
          <mxGeometry relative="1" as="geometry">
            <mxPoint x="480" y="130" as="targetPoint" />
            <mxPoint x="570" y="240" as="sourcePoint" />
            <Array as="points">
              <mxPoint x="490" y="240" />
            </Array>
          </mxGeometry>
        </mxCell>
        <mxCell id="RIKkRgaRCpIKNUtkJool-45" value="1" style="edgeLabel;html=1;align=center;verticalAlign=middle;resizable=0;points=[];" vertex="1" connectable="0" parent="RIKkRgaRCpIKNUtkJool-24">
          <mxGeometry x="0.842" y="-2" relative="1" as="geometry">
            <mxPoint x="8" y="-6" as="offset" />
          </mxGeometry>
        </mxCell>
        <mxCell id="RIKkRgaRCpIKNUtkJool-26" value="" style="edgeStyle=orthogonalEdgeStyle;rounded=0;orthogonalLoop=1;jettySize=auto;html=1;endArrow=none;endFill=0;" edge="1" parent="1" target="RIKkRgaRCpIKNUtkJool-86" source="RIKkRgaRCpIKNUtkJool-12">
          <mxGeometry relative="1" as="geometry">
            <mxPoint x="500" y="340" as="sourcePoint" />
            <mxPoint x="630" y="260" as="targetPoint" />
          </mxGeometry>
        </mxCell>
        <mxCell id="RIKkRgaRCpIKNUtkJool-47" value="1" style="edgeLabel;html=1;align=center;verticalAlign=middle;resizable=0;points=[];" vertex="1" connectable="0" parent="RIKkRgaRCpIKNUtkJool-26">
          <mxGeometry x="-0.272" y="-2" relative="1" as="geometry">
            <mxPoint x="8" y="8" as="offset" />
          </mxGeometry>
        </mxCell>
        <mxCell id="RIKkRgaRCpIKNUtkJool-27" value="részek" style="ellipse;whiteSpace=wrap;html=1;" vertex="1" parent="1">
          <mxGeometry x="640" y="450" width="120" height="30" as="geometry" />
        </mxCell>
        <mxCell id="RIKkRgaRCpIKNUtkJool-28" value="&lt;u&gt;azonosító&lt;/u&gt;" style="ellipse;whiteSpace=wrap;html=1;" vertex="1" parent="1">
          <mxGeometry x="270" y="400.5" width="120" height="30" as="geometry" />
        </mxCell>
        <mxCell id="RIKkRgaRCpIKNUtkJool-29" value="" style="endArrow=none;html=1;rounded=0;" edge="1" parent="1" target="RIKkRgaRCpIKNUtkJool-28" source="RIKkRgaRCpIKNUtkJool-11">
          <mxGeometry width="50" height="50" relative="1" as="geometry">
            <mxPoint x="230" y="399.5" as="sourcePoint" />
            <mxPoint x="261" y="461.5" as="targetPoint" />
          </mxGeometry>
        </mxCell>
        <mxCell id="RIKkRgaRCpIKNUtkJool-30" value="&lt;u&gt;azonosító&lt;/u&gt;" style="ellipse;whiteSpace=wrap;html=1;" vertex="1" parent="1">
          <mxGeometry x="660" y="390" width="120" height="30" as="geometry" />
        </mxCell>
        <mxCell id="RIKkRgaRCpIKNUtkJool-31" value="" style="endArrow=none;html=1;rounded=0;" edge="1" parent="1" target="RIKkRgaRCpIKNUtkJool-30" source="RIKkRgaRCpIKNUtkJool-12">
          <mxGeometry width="50" height="50" relative="1" as="geometry">
            <mxPoint x="560" y="390" as="sourcePoint" />
            <mxPoint x="591" y="452" as="targetPoint" />
          </mxGeometry>
        </mxCell>
        <mxCell id="RIKkRgaRCpIKNUtkJool-32" value="évadok" style="ellipse;whiteSpace=wrap;html=1;" vertex="1" parent="1">
          <mxGeometry x="510" y="450" width="120" height="30" as="geometry" />
        </mxCell>
        <mxCell id="RIKkRgaRCpIKNUtkJool-33" value="" style="endArrow=none;html=1;rounded=0;" edge="1" parent="1" source="RIKkRgaRCpIKNUtkJool-32" target="RIKkRgaRCpIKNUtkJool-12">
          <mxGeometry width="50" height="50" relative="1" as="geometry">
            <mxPoint x="510" y="400" as="sourcePoint" />
            <mxPoint x="560" y="350" as="targetPoint" />
          </mxGeometry>
        </mxCell>
        <mxCell id="RIKkRgaRCpIKNUtkJool-34" value="" style="endArrow=none;html=1;rounded=0;" edge="1" parent="1" source="RIKkRgaRCpIKNUtkJool-27" target="RIKkRgaRCpIKNUtkJool-12">
          <mxGeometry width="50" height="50" relative="1" as="geometry">
            <mxPoint x="605" y="540" as="sourcePoint" />
            <mxPoint x="655" y="490" as="targetPoint" />
          </mxGeometry>
        </mxCell>
        <mxCell id="RIKkRgaRCpIKNUtkJool-35" value="" style="endArrow=none;html=1;rounded=0;" edge="1" parent="1" source="RIKkRgaRCpIKNUtkJool-36" target="RIKkRgaRCpIKNUtkJool-11">
          <mxGeometry width="50" height="50" relative="1" as="geometry">
            <mxPoint x="510" y="400" as="sourcePoint" />
            <mxPoint x="560" y="350" as="targetPoint" />
          </mxGeometry>
        </mxCell>
        <mxCell id="RIKkRgaRCpIKNUtkJool-36" value="megjelenés éve" style="ellipse;whiteSpace=wrap;html=1;" vertex="1" parent="1">
          <mxGeometry x="410" y="400.5" width="120" height="30" as="geometry" />
        </mxCell>
        <mxCell id="RIKkRgaRCpIKNUtkJool-37" value="hossz" style="ellipse;whiteSpace=wrap;html=1;" vertex="1" parent="1">
          <mxGeometry x="320" y="450" width="120" height="30" as="geometry" />
        </mxCell>
        <mxCell id="RIKkRgaRCpIKNUtkJool-38" value="" style="endArrow=none;html=1;rounded=0;" edge="1" parent="1" source="RIKkRgaRCpIKNUtkJool-37" target="RIKkRgaRCpIKNUtkJool-11">
          <mxGeometry width="50" height="50" relative="1" as="geometry">
            <mxPoint x="510" y="400" as="sourcePoint" />
            <mxPoint x="560" y="350" as="targetPoint" />
          </mxGeometry>
        </mxCell>
        <mxCell id="RIKkRgaRCpIKNUtkJool-39" value="szerepel" style="rhombus;whiteSpace=wrap;html=1;" vertex="1" parent="1">
          <mxGeometry x="260" y="180" width="120" height="40" as="geometry" />
        </mxCell>
        <mxCell id="RIKkRgaRCpIKNUtkJool-40" value="" style="endArrow=none;html=1;rounded=0;" edge="1" parent="1" source="RIKkRgaRCpIKNUtkJool-9" target="RIKkRgaRCpIKNUtkJool-39">
          <mxGeometry width="50" height="50" relative="1" as="geometry">
            <mxPoint x="260" y="320" as="sourcePoint" />
            <mxPoint x="260" y="240" as="targetPoint" />
          </mxGeometry>
        </mxCell>
        <mxCell id="RIKkRgaRCpIKNUtkJool-48" value="N" style="edgeLabel;html=1;align=center;verticalAlign=middle;resizable=0;points=[];" vertex="1" connectable="0" parent="RIKkRgaRCpIKNUtkJool-40">
          <mxGeometry x="-0.6677" y="2" relative="1" as="geometry">
            <mxPoint x="-11" y="1" as="offset" />
          </mxGeometry>
        </mxCell>
        <mxCell id="RIKkRgaRCpIKNUtkJool-41" value="" style="endArrow=none;html=1;rounded=0;" edge="1" parent="1" source="RIKkRgaRCpIKNUtkJool-39" target="RIKkRgaRCpIKNUtkJool-10">
          <mxGeometry width="50" height="50" relative="1" as="geometry">
            <mxPoint x="290.5" y="130" as="sourcePoint" />
            <mxPoint x="369.5" y="74" as="targetPoint" />
          </mxGeometry>
        </mxCell>
        <mxCell id="RIKkRgaRCpIKNUtkJool-49" value="N" style="edgeLabel;html=1;align=center;verticalAlign=middle;resizable=0;points=[];" vertex="1" connectable="0" parent="RIKkRgaRCpIKNUtkJool-41">
          <mxGeometry x="0.792" y="-2" relative="1" as="geometry">
            <mxPoint y="11" as="offset" />
          </mxGeometry>
        </mxCell>
        <mxCell id="RIKkRgaRCpIKNUtkJool-50" value="értékel" style="rhombus;whiteSpace=wrap;html=1;" vertex="1" parent="1">
          <mxGeometry x="230" y="70" width="120" height="40" as="geometry" />
        </mxCell>
        <mxCell id="RIKkRgaRCpIKNUtkJool-51" value="" style="endArrow=none;html=1;rounded=0;" edge="1" parent="1" target="RIKkRgaRCpIKNUtkJool-50" source="RIKkRgaRCpIKNUtkJool-8">
          <mxGeometry width="50" height="50" relative="1" as="geometry">
            <mxPoint x="172" y="260" as="sourcePoint" />
            <mxPoint x="270" y="250" as="targetPoint" />
          </mxGeometry>
        </mxCell>
        <mxCell id="RIKkRgaRCpIKNUtkJool-52" value="N" style="edgeLabel;html=1;align=center;verticalAlign=middle;resizable=0;points=[];" vertex="1" connectable="0" parent="RIKkRgaRCpIKNUtkJool-51">
          <mxGeometry x="-0.6677" y="2" relative="1" as="geometry">
            <mxPoint x="2" y="-8" as="offset" />
          </mxGeometry>
        </mxCell>
        <mxCell id="RIKkRgaRCpIKNUtkJool-53" value="" style="endArrow=none;html=1;rounded=0;" edge="1" parent="1" source="RIKkRgaRCpIKNUtkJool-50" target="RIKkRgaRCpIKNUtkJool-10">
          <mxGeometry width="50" height="50" relative="1" as="geometry">
            <mxPoint x="300.5" y="140" as="sourcePoint" />
            <mxPoint x="420" y="126" as="targetPoint" />
          </mxGeometry>
        </mxCell>
        <mxCell id="RIKkRgaRCpIKNUtkJool-54" value="N" style="edgeLabel;html=1;align=center;verticalAlign=middle;resizable=0;points=[];" vertex="1" connectable="0" parent="RIKkRgaRCpIKNUtkJool-53">
          <mxGeometry x="0.792" y="-2" relative="1" as="geometry">
            <mxPoint y="-13" as="offset" />
          </mxGeometry>
        </mxCell>
        <mxCell id="RIKkRgaRCpIKNUtkJool-56" value="értékelés" style="ellipse;whiteSpace=wrap;html=1;" vertex="1" parent="1">
          <mxGeometry x="230" y="10" width="120" height="30" as="geometry" />
        </mxCell>
        <mxCell id="RIKkRgaRCpIKNUtkJool-57" value="" style="endArrow=none;html=1;rounded=0;" edge="1" parent="1" source="RIKkRgaRCpIKNUtkJool-50" target="RIKkRgaRCpIKNUtkJool-56">
          <mxGeometry width="50" height="50" relative="1" as="geometry">
            <mxPoint x="260" y="200" as="sourcePoint" />
            <mxPoint x="310" y="150" as="targetPoint" />
          </mxGeometry>
        </mxCell>
        <mxCell id="RIKkRgaRCpIKNUtkJool-58" value="szerep" style="ellipse;whiteSpace=wrap;html=1;" vertex="1" parent="1">
          <mxGeometry x="160" y="240" width="120" height="30" as="geometry" />
        </mxCell>
        <mxCell id="RIKkRgaRCpIKNUtkJool-59" value="" style="endArrow=none;html=1;rounded=0;" edge="1" parent="1" target="RIKkRgaRCpIKNUtkJool-58">
          <mxGeometry width="50" height="50" relative="1" as="geometry">
            <mxPoint x="260" y="200" as="sourcePoint" />
            <mxPoint x="310" y="150" as="targetPoint" />
          </mxGeometry>
        </mxCell>
        <mxCell id="RIKkRgaRCpIKNUtkJool-60" value="felhasználónév" style="ellipse;whiteSpace=wrap;html=1;" vertex="1" parent="1">
          <mxGeometry x="160" y="150" width="120" height="30" as="geometry" />
        </mxCell>
        <mxCell id="RIKkRgaRCpIKNUtkJool-61" value="&lt;u&gt;azonosító&lt;/u&gt;" style="ellipse;whiteSpace=wrap;html=1;" vertex="1" parent="1">
          <mxGeometry x="90" y="190" width="120" height="30" as="geometry" />
        </mxCell>
        <mxCell id="RIKkRgaRCpIKNUtkJool-62" value="név" style="ellipse;whiteSpace=wrap;html=1;" vertex="1" parent="1">
          <mxGeometry x="10" y="140" width="120" height="30" as="geometry" />
        </mxCell>
        <mxCell id="RIKkRgaRCpIKNUtkJool-63" value="" style="endArrow=none;html=1;rounded=0;" edge="1" parent="1" target="RIKkRgaRCpIKNUtkJool-62" source="RIKkRgaRCpIKNUtkJool-8">
          <mxGeometry width="50" height="50" relative="1" as="geometry">
            <mxPoint x="50" y="180" as="sourcePoint" />
            <mxPoint x="-20" y="310" as="targetPoint" />
          </mxGeometry>
        </mxCell>
        <mxCell id="RIKkRgaRCpIKNUtkJool-64" value="" style="endArrow=none;html=1;rounded=0;" edge="1" parent="1" target="RIKkRgaRCpIKNUtkJool-61" source="RIKkRgaRCpIKNUtkJool-8">
          <mxGeometry width="50" height="50" relative="1" as="geometry">
            <mxPoint x="70" y="159" as="sourcePoint" />
            <mxPoint x="101" y="221" as="targetPoint" />
          </mxGeometry>
        </mxCell>
        <mxCell id="RIKkRgaRCpIKNUtkJool-65" value="" style="endArrow=none;html=1;rounded=0;" edge="1" parent="1" target="RIKkRgaRCpIKNUtkJool-60" source="RIKkRgaRCpIKNUtkJool-8">
          <mxGeometry width="50" height="50" relative="1" as="geometry">
            <mxPoint x="70" y="144" as="sourcePoint" />
            <mxPoint x="129" y="177" as="targetPoint" />
          </mxGeometry>
        </mxCell>
        <mxCell id="RIKkRgaRCpIKNUtkJool-66" style="edgeStyle=orthogonalEdgeStyle;rounded=0;orthogonalLoop=1;jettySize=auto;html=1;exitX=0.5;exitY=1;exitDx=0;exitDy=0;" edge="1" parent="1" source="RIKkRgaRCpIKNUtkJool-62" target="RIKkRgaRCpIKNUtkJool-62">
          <mxGeometry relative="1" as="geometry" />
        </mxCell>
        <mxCell id="RIKkRgaRCpIKNUtkJool-73" value="jelszó" style="ellipse;whiteSpace=wrap;html=1;" vertex="1" parent="1">
          <mxGeometry x="60" y="10" width="120" height="30" as="geometry" />
        </mxCell>
        <mxCell id="RIKkRgaRCpIKNUtkJool-74" value="" style="endArrow=none;html=1;rounded=0;" edge="1" parent="1" source="RIKkRgaRCpIKNUtkJool-73" target="RIKkRgaRCpIKNUtkJool-8">
          <mxGeometry width="50" height="50" relative="1" as="geometry">
            <mxPoint x="138" y="130" as="sourcePoint" />
            <mxPoint x="156" y="200" as="targetPoint" />
          </mxGeometry>
        </mxCell>
        <mxCell id="RIKkRgaRCpIKNUtkJool-76" value="állampolgárság" style="ellipse;whiteSpace=wrap;html=1;" vertex="1" parent="1">
          <mxGeometry x="30" y="360" width="120" height="30" as="geometry" />
        </mxCell>
        <mxCell id="RIKkRgaRCpIKNUtkJool-77" value="születési dátum" style="ellipse;whiteSpace=wrap;html=1;" vertex="1" parent="1">
          <mxGeometry x="30" y="420" width="120" height="30" as="geometry" />
        </mxCell>
        <mxCell id="RIKkRgaRCpIKNUtkJool-78" value="név" style="ellipse;whiteSpace=wrap;html=1;" vertex="1" parent="1">
          <mxGeometry x="160" y="440" width="120" height="30" as="geometry" />
        </mxCell>
        <mxCell id="RIKkRgaRCpIKNUtkJool-79" value="&lt;u&gt;azonosító&lt;/u&gt;" style="ellipse;whiteSpace=wrap;html=1;" vertex="1" parent="1">
          <mxGeometry x="30" y="310" width="120" height="30" as="geometry" />
        </mxCell>
        <mxCell id="RIKkRgaRCpIKNUtkJool-80" value="" style="endArrow=none;html=1;rounded=0;" edge="1" parent="1" source="RIKkRgaRCpIKNUtkJool-9" target="RIKkRgaRCpIKNUtkJool-77">
          <mxGeometry width="50" height="50" relative="1" as="geometry">
            <mxPoint x="260" y="310" as="sourcePoint" />
            <mxPoint x="310" y="260" as="targetPoint" />
          </mxGeometry>
        </mxCell>
        <mxCell id="RIKkRgaRCpIKNUtkJool-81" value="" style="endArrow=none;html=1;rounded=0;" edge="1" parent="1" source="RIKkRgaRCpIKNUtkJool-9" target="RIKkRgaRCpIKNUtkJool-78">
          <mxGeometry width="50" height="50" relative="1" as="geometry">
            <mxPoint x="260" y="310" as="sourcePoint" />
            <mxPoint x="310" y="260" as="targetPoint" />
          </mxGeometry>
        </mxCell>
        <mxCell id="RIKkRgaRCpIKNUtkJool-82" value="" style="endArrow=none;html=1;rounded=0;" edge="1" parent="1" source="RIKkRgaRCpIKNUtkJool-9" target="RIKkRgaRCpIKNUtkJool-76">
          <mxGeometry width="50" height="50" relative="1" as="geometry">
            <mxPoint x="260" y="310" as="sourcePoint" />
            <mxPoint x="310" y="260" as="targetPoint" />
          </mxGeometry>
        </mxCell>
        <mxCell id="RIKkRgaRCpIKNUtkJool-83" value="" style="endArrow=none;html=1;rounded=0;" edge="1" parent="1" source="RIKkRgaRCpIKNUtkJool-9" target="RIKkRgaRCpIKNUtkJool-79">
          <mxGeometry width="50" height="50" relative="1" as="geometry">
            <mxPoint x="260" y="310" as="sourcePoint" />
            <mxPoint x="310" y="260" as="targetPoint" />
          </mxGeometry>
        </mxCell>
        <mxCell id="RIKkRgaRCpIKNUtkJool-84" value="" style="triangle;whiteSpace=wrap;html=1;rotation=-90;" vertex="1" parent="1">
          <mxGeometry x="384" y="190" width="60" height="80" as="geometry" />
        </mxCell>
        <mxCell id="RIKkRgaRCpIKNUtkJool-86" value="" style="triangle;whiteSpace=wrap;html=1;rotation=-90;" vertex="1" parent="1">
          <mxGeometry x="600" y="200" width="60" height="80" as="geometry" />
        </mxCell>
      </root>
    </mxGraphModel>
  </diagram>
</mxfile>
